<?xml version="1.0" encoding="iso-8859-1"?>
<!-- Generator: Adobe Illustrator 19.0.0, SVG Export Plug-In . SVG Version: 6.00 Build 0)  -->
<svg version="1.1" id="Capa_1" xmlns="http://www.w3.org/2000/svg" xmlns:xlink="http://www.w3.org/1999/xlink" x="0px" y="0px"
	 viewBox="0 0 512 512" style="enable-background:new 0 0 512 512;" xml:space="preserve">
<g>
	<path style="fill:#F6D83E;" d="M311.262,504.499L311.262,504.499c-10.877,0-19.694-8.818-19.694-19.694V378.532h39.389v106.273
		C330.957,495.681,322.139,504.499,311.262,504.499z"/>
	<path style="fill:#F6D83E;" d="M130.695,374.554L130.695,374.554c-10.877,0-19.695-8.818-19.695-19.694V196.592h39.389V354.86
		C150.389,365.737,141.572,374.554,130.695,374.554z"/>
</g>
<path style="fill:#D59C6E;" d="M53.444,78.144l149.308,360.461c19.65,47.439,86.846,47.439,106.495,0L458.551,78.153
	c6.45-15.572-1.476-33.4-17.379-38.983C324.897-1.654,194.822-4.425,70.917,39.128C54.979,44.73,46.979,62.537,53.444,78.144z"/>
<path style="opacity:0.1;enable-background:new    ;" d="M291.568,378.532v101.095c13.709-7.68,24.69-19.896,31.132-35.449
	l8.257-19.934v-45.713h-39.389V378.532z"/>
<polygon style="opacity:0.1;enable-background:new    ;" points="111,196.592 111,255.147 150.389,350.24 150.389,196.592 "/>
<path style="fill:#F6D83E;" d="M74.316,128.535l128.435,310.07c19.65,47.439,86.846,47.439,106.495,0l128.435-310.07
	C325.43,82.039,195.439,78.365,74.316,128.535z"/>
<path style="fill:#DC5371;" d="M384.966,158.56c-38.947,0-70.519,31.573-70.519,70.519c0,32.992,22.66,60.685,53.263,68.384
	l53.406-128.934C410.544,162.204,398.183,158.56,384.966,158.56z"/>
<g style="opacity:0.1;">
	<circle cx="350.92" cy="252.19" r="7.232"/>
	<circle cx="392.84" cy="181.21" r="7.232"/>
</g>
<path style="fill:#DC5371;" d="M283.772,93.107c-46.228-2.742-93.336,1.278-139.9,12.655c0.056,38.899,31.604,70.416,70.517,70.416
	c38.947,0,70.519-31.573,70.519-70.519C284.908,101.372,284.504,97.183,283.772,93.107z"/>
<g style="opacity:0.1;">
	<circle cx="197.64" cy="145.74" r="7.232"/>
	<circle cx="248.77" cy="120.99" r="7.232"/>
</g>
<g style="opacity:0.1;">
	<circle cx="105.13" cy="82.57" r="7.232"/>
	<circle cx="156.26" cy="50.595" r="7.232"/>
	<circle cx="241.53" cy="65.06" r="7.232"/>
	<circle cx="336.45" cy="40.539" r="7.232"/>
	<circle cx="392.84" cy="77.21" r="7.232"/>
</g>
<path style="fill:#DC5371;" d="M185.48,268.105c-17.678,0-33.823,6.52-46.2,17.267l51.187,123.577
	c36.617-2.561,65.532-33.056,65.532-70.324C255.999,299.678,224.427,268.105,185.48,268.105z"/>
<g style="opacity:0.1;">
	<circle cx="183.18" cy="300.08" r="7.232"/>
	<circle cx="229.82" cy="321.95" r="7.232"/>
	<circle cx="204.87" cy="363.06" r="7.232"/>
</g>
<path style="opacity:0.1;enable-background:new    ;" d="M441.172,39.17c-9.202-3.231-18.491-6.222-27.856-8.972
	c10.782,7.745,15.33,22.207,9.98,35.125l-20.808,50.235c-103.723-33.699-219.515-32.03-328.171,12.977l9.668,23.339
	c102.349-39.836,210.477-41.709,308.52-12.213L273.991,425.776c-10.021,24.193-32.407,36.039-54.547,35.557
	c27.887,22.817,74.075,15.245,89.803-22.727L458.551,78.153C465.002,62.581,457.076,44.754,441.172,39.17z"/>
<path d="M271.322,218.82c-2.674,6.075-8.688,10-15.323,10c-6.636,0-12.65-3.925-15.322-10.001c-1.669-3.792-6.099-5.512-9.885-3.845
	c-3.792,1.668-5.514,6.094-3.846,9.885c5.067,11.518,16.471,18.96,29.053,18.96c12.579,0,23.982-7.441,29.052-18.957
	c1.669-3.791-0.052-8.217-3.843-9.886C277.422,213.31,272.992,215.028,271.322,218.82z M139.887,197.888v11.975
	c0,4.142,3.357,7.5,7.5,7.5s7.5-3.358,7.5-7.5v-11.975c0-4.142-3.357-7.5-7.5-7.5C143.244,190.388,139.887,193.746,139.887,197.888z
	 M465.078,51.825c-4.173-9.339-11.78-16.347-21.422-19.732C384.024,11.157,321.88,0.362,258.948,0.008
	C194.058-0.332,129.96,10.425,68.43,32.052c-9.689,3.406-17.331,10.442-21.516,19.811c-4.174,9.345-4.315,19.698-0.399,29.151
	L103.5,218.589V354.86c0,14.995,12.199,27.194,27.194,27.194s27.194-12.199,27.194-27.194v-4.965l37.935,91.582
	c10.273,24.802,33.331,40.209,60.176,40.209c10.043,0,19.556-2.158,28.068-6.155v9.275c0,14.995,12.199,27.194,27.194,27.194
	s27.195-12.199,27.195-27.194v-97.12l9.279-22.402c1.586-3.827-0.231-8.214-4.059-9.799c-3.827-1.586-8.214,0.233-9.799,4.059
	l-9.818,23.702c-0.01,0.024-0.02,0.048-0.03,0.073l-21.712,52.418c-7.907,19.09-25.656,30.949-46.319,30.949
	c-20.662,0-38.411-11.859-46.318-30.949l-8.576-20.703c35.701-7.297,62.394-39.075,62.394-76.408
	c0-34.591-23.193-65.425-56.401-74.984c-3.971-1.142-8.135,1.152-9.281,5.133s1.152,8.136,5.133,9.282
	c26.819,7.72,45.55,32.627,45.55,60.569c0,31.15-23.002,57.512-53.266,62.232l-37.918-91.542c-0.01-0.025-0.021-0.05-0.031-0.075
	l-8.914-21.52c7.757-5.667,16.696-9.502,26.144-11.162c4.079-0.717,6.805-4.605,6.088-8.685c-0.717-4.079-4.598-6.806-8.686-6.088
	c-10.522,1.85-20.532,5.867-29.422,11.751L117.93,214.23c-0.012-0.03-0.024-0.06-0.037-0.089l-33.752-81.484
	c17.343-6.864,34.987-12.653,52.846-17.377c4.762,38.486,37.665,68.397,77.402,68.397c43.02,0,78.019-34.999,78.019-78.019
	c0-1.476-0.06-2.962-0.147-4.451c16.719,1.314,33.417,3.533,50.029,6.67c4.062,0.771,7.992-1.907,8.762-5.978
	c0.769-4.07-1.908-7.993-5.979-8.761C277.624,80.4,208.808,82.297,142.641,98.371c-0.39,0.064-0.77,0.155-1.137,0.277
	c-21.358,5.244-42.439,11.959-63.103,20.15L60.372,75.274c-2.322-5.608-2.238-11.75,0.238-17.294
	c2.487-5.569,7.03-9.751,12.794-11.777c59.901-21.056,122.318-31.56,185.46-31.196c61.264,0.344,121.765,10.855,179.823,31.239
	c5.712,2.005,10.221,6.16,12.695,11.698c2.483,5.558,2.568,11.716,0.24,17.338l-18.024,43.514
	c-18.498-7.326-37.557-13.559-56.766-18.546c-4.006-1.04-8.104,1.366-9.145,5.375c-1.04,4.009,1.366,8.103,5.375,9.144
	c18.54,4.813,36.937,10.823,54.795,17.885l-10.536,25.435c-10.115-4.612-21.148-7.031-32.357-7.031c-43.02,0-78.019,35-78.019,78.02
	c0,32.907,20.465,61.828,50.7,73.082l-10.784,26.035c-1.586,3.827,0.231,8.214,4.059,9.799c3.828,1.586,8.214-0.233,9.799-4.059
	L465.48,81.023C469.403,71.554,469.26,61.185,465.078,51.825z M299.067,465.651c7.262-6.429,13.142-14.598,17.108-24.175
	l7.281-17.578v60.907c0,6.724-5.471,12.194-12.195,12.194s-12.194-5.47-12.194-12.194V465.651z M118.5,254.802l13.9,33.557
	c0.005,0.012,0.009,0.024,0.014,0.035l10.474,25.287v41.179c0,6.724-5.471,12.194-12.194,12.194c-6.724,0-12.194-5.47-12.194-12.194
	V254.802z M277.166,100.28c0.158,1.803,0.241,3.6,0.241,5.379c0,34.749-28.27,63.019-63.019,63.019
	c-32.71,0-59.695-25.09-62.723-57.033C192.833,102.168,235.007,98.345,277.166,100.28z M363.391,288.294
	c-24.691-8.954-41.444-32.451-41.444-59.214c0-34.749,28.27-63.02,63.019-63.02c9.234,0,18.32,2.024,26.616,5.892L363.391,288.294z
	 M364.611,190.388c-4.143,0-7.5,3.358-7.5,7.5v11.975c0,4.142,3.357,7.5,7.5,7.5s7.5-3.358,7.5-7.5v-11.975
	C372.111,193.746,368.754,190.388,364.611,190.388z"/>
<g>
</g>
<g>
</g>
<g>
</g>
<g>
</g>
<g>
</g>
<g>
</g>
<g>
</g>
<g>
</g>
<g>
</g>
<g>
</g>
<g>
</g>
<g>
</g>
<g>
</g>
<g>
</g>
<g>
</g>
</svg>
